<svg xmlns="http://www.w3.org/2000/svg" width="3000" height="1093" viewBox="0 0 3000 1093" version="1.1"><path d="M 596 111.059 C 571.017 114.214, 541.223 122.358, 516.306 132.843 C 492.427 142.891, 458.157 164.778, 437.512 183.166 C 388.747 226.601, 359.236 283.454, 351.432 349 C 345.822 396.116, 356.148 449.652, 379.253 493.236 C 394.888 522.729, 419.216 551.701, 444.500 570.938 C 470.486 590.709, 501.151 605.753, 532 613.864 C 547.678 617.986, 551.004 618.482, 586.460 621.998 C 625.608 625.879, 628.320 626.277, 640.778 629.980 C 662.251 636.363, 682.792 648.682, 699.072 664.942 C 710.997 676.852, 716.147 683.950, 722.531 697.280 C 733.912 721.038, 735.681 744.522, 728.076 770.874 C 714.656 817.379, 667.386 854.705, 608.500 865.294 C 591.336 868.380, 554.404 868.348, 532 865.227 C 457.260 854.815, 382.354 817.807, 326.105 763.501 C 313.984 751.799, 307.738 745.386, 305.516 742.361 L 304.149 740.500 301.324 743.095 C 299.771 744.522, 280.625 761.307, 258.777 780.396 C 236.930 799.484, 218.837 815.455, 218.571 815.886 C 217.331 817.891, 238.975 842.887, 259.097 862.690 C 285.221 888.399, 308.587 906.725, 343 928.497 C 363.950 941.751, 399.328 958.960, 423.500 967.654 C 461.002 981.143, 494.967 988.696, 533.500 992.117 C 553.662 993.906, 588.572 992.726, 610 989.530 C 636.513 985.576, 659.961 979.006, 683.587 968.912 C 739.187 945.157, 785.199 902.802, 812.767 850 C 832.400 812.396, 841.959 773.432, 841.962 731 C 841.966 679.573, 826.351 629.730, 797.164 588 C 785.460 571.266, 764.083 548.658, 750 538.119 C 748.075 536.679, 745.870 534.902, 745.101 534.172 C 741.134 530.408, 718.996 516.860, 707.074 510.900 C 675.568 495.151, 644.798 487.493, 605 485.495 C 573.272 483.903, 554.615 479.925, 533.500 470.252 C 506.349 457.813, 482.451 435.732, 470.537 412.074 C 457.163 385.515, 454.531 352.123, 463.676 325 C 470.002 306.236, 478.773 292.234, 493.482 277.413 C 515.049 255.681, 538.814 243.055, 575.340 233.921 C 595.419 228.900, 606.455 227.674, 632 227.630 C 656.541 227.588, 670.270 228.951, 691.107 233.500 C 739.906 244.152, 785.379 264.654, 827.374 294.937 C 833.905 299.647, 840.205 304.167, 841.374 304.982 C 848.004 309.604, 872.348 331.276, 883.837 342.786 C 891.377 350.339, 897.736 355.932, 898.466 355.651 C 899.657 355.194, 963.840 299.176, 970.384 292.882 L 973.269 290.108 970.884 287.102 C 969.573 285.449, 966.925 281.996, 965 279.429 C 938.731 244.399, 893.858 203.648, 854.500 179.081 C 850.650 176.677, 846.375 173.950, 845 173.020 C 833.140 164.995, 794.601 145.835, 774.500 137.970 C 740.584 124.700, 702.697 115.140, 669.500 111.477 C 645.908 108.873, 614.709 108.696, 596 111.059 M 2333.121 165.354 C 2332.293 166.352, 2332.063 245.873, 2332.248 467.104 L 2332.500 767.500 2385.887 767.759 C 2424.481 767.946, 2439.651 767.704, 2440.637 766.886 C 2441.782 765.936, 2442 717.976, 2442 466.812 C 2442 262.655, 2441.672 167.255, 2440.965 165.934 L 2439.930 164 2387.087 164 C 2343.860 164, 2334.040 164.246, 2333.121 165.354 M 1688 241.452 C 1682.377 243.402, 1669.872 247.227, 1651.500 252.615 C 1642.073 255.380, 1640.463 255.865, 1622.500 261.343 C 1595.526 269.569, 1595.020 269.738, 1593.454 271.039 C 1592.228 272.056, 1592 278.327, 1592 311.041 C 1592 332.378, 1591.727 350.548, 1591.393 351.418 L 1590.786 353 1557.584 353 C 1532.597 353, 1523.961 353.309, 1522.680 354.250 L 1520.977 355.500 1521.238 407 L 1521.500 458.500 1555.414 458.763 C 1577.880 458.938, 1589.767 459.392, 1590.631 460.108 C 1591.679 460.979, 1592.018 479.966, 1592.368 557.345 C 1592.606 610.230, 1593.225 656.875, 1593.743 661 C 1596.633 684.029, 1603.346 704.251, 1613.720 721.186 C 1625.313 740.108, 1647.189 756.679, 1668.500 762.681 C 1684.043 767.058, 1687.800 767.955, 1690.685 767.976 C 1692.437 767.989, 1694.987 768.425, 1696.352 768.944 C 1697.718 769.463, 1707.279 770.403, 1717.600 771.033 C 1738.306 772.296, 1780.687 770.921, 1789.589 768.698 C 1793.800 767.646, 1794.487 767.096, 1795.239 764.177 C 1795.710 762.349, 1795.961 740.705, 1795.798 716.079 C 1795.557 679.932, 1795.236 670.987, 1794.128 669.652 L 1792.755 668 1764.128 668.004 L 1735.500 668.009 1727.215 665.376 C 1717.822 662.390, 1710.412 656.688, 1706.849 649.703 C 1702.325 640.836, 1702.008 633.946, 1702.004 544.357 L 1702 460.214 1703.582 459.607 C 1704.452 459.273, 1725.166 459, 1749.613 459 L 1794.063 459 1794.781 457.250 C 1795.177 456.288, 1795.500 433.135, 1795.500 405.800 C 1795.500 366.370, 1795.232 355.831, 1794.201 354.800 C 1793.188 353.787, 1782.922 353.390, 1747.701 353 L 1702.500 352.500 1702.241 297.092 C 1702.060 258.198, 1701.651 241.284, 1700.869 240.342 C 1699.329 238.487, 1695.627 238.806, 1688 241.452 M 1318.055 342.534 C 1309.560 343.307, 1301.281 344.404, 1299.656 344.970 C 1298.031 345.537, 1295.531 345.998, 1294.101 345.995 C 1292.670 345.992, 1289.475 346.633, 1287 347.418 C 1284.525 348.204, 1278.675 350.064, 1274 351.553 C 1252.767 358.314, 1230.284 371.800, 1214.903 387 C 1196.633 405.054, 1187.486 422.742, 1181.807 451 C 1180.195 459.016, 1180.133 489.694, 1181.714 496 C 1182.335 498.475, 1183.626 503.650, 1184.584 507.500 C 1186.837 516.563, 1192.471 528.689, 1198.522 537.500 C 1209.269 553.148, 1230.314 570.640, 1248.532 579.067 C 1258.061 583.474, 1286.202 593.783, 1297.500 597.006 C 1301.900 598.260, 1309.100 600.355, 1313.500 601.661 C 1317.900 602.967, 1323.750 604.696, 1326.500 605.503 C 1347.353 611.626, 1366.368 618.813, 1375.500 624.022 C 1385.645 629.810, 1392 638.766, 1392 647.274 C 1392 657.421, 1385.280 667.580, 1375.352 672.441 C 1358.056 680.911, 1327.374 681.431, 1302.695 673.673 C 1286.640 668.626, 1269.992 652.795, 1262.892 635.823 C 1260.266 629.549, 1258.296 627, 1256.071 627 C 1255.180 627, 1250.898 629.025, 1246.555 631.500 C 1242.212 633.975, 1238.575 636, 1238.473 636 C 1238.371 636, 1234.510 638.173, 1229.893 640.828 C 1225.277 643.483, 1215.200 649.179, 1207.500 653.486 C 1199.800 657.792, 1191.475 662.456, 1189 663.850 C 1186.525 665.243, 1180 668.897, 1174.500 671.969 C 1161.916 678.997, 1161.879 679.154, 1169.631 693.140 C 1177.371 707.103, 1188.043 720.877, 1200.057 732.407 C 1209.574 741.542, 1226.907 754.219, 1234.109 757.311 C 1235.974 758.112, 1241.100 760.473, 1245.500 762.556 C 1255.351 767.222, 1269.290 771.606, 1282.500 774.193 C 1288 775.270, 1294.525 776.607, 1297 777.164 C 1305.336 779.040, 1336.694 780.038, 1355 779.010 C 1371.832 778.064, 1375.636 777.539, 1388.235 774.420 C 1391.389 773.639, 1394.855 773, 1395.937 773 C 1397.891 773, 1406.834 770.045, 1422.889 764.092 C 1434.999 759.603, 1458.116 745.294, 1468.109 736.103 C 1486.693 719.009, 1499.632 694.814, 1503.192 670.500 C 1505.931 651.799, 1505.061 629.558, 1500.964 613.500 C 1492.865 581.762, 1469.572 553.984, 1438.500 539.009 C 1427.519 533.717, 1406.816 526.171, 1390.500 521.513 C 1387.200 520.571, 1383.150 519.408, 1381.500 518.928 C 1376.970 517.610, 1368.987 515.376, 1364.500 514.170 C 1323.549 503.164, 1302.959 493.613, 1296.528 482.637 C 1293.173 476.914, 1292.993 467.120, 1296.120 460.469 C 1300.051 452.105, 1310.325 445.408, 1324.264 442.123 C 1330.285 440.704, 1347.961 440.664, 1353.384 442.058 C 1375.207 447.665, 1387.746 456.624, 1398.051 473.969 C 1403.207 482.648, 1404.729 482.879, 1415.785 476.660 C 1420.028 474.273, 1427.550 470.154, 1432.500 467.506 C 1437.450 464.858, 1447.350 459.464, 1454.500 455.518 C 1461.650 451.573, 1471.775 446.048, 1477 443.240 C 1482.225 440.433, 1488.424 437.092, 1490.776 435.818 C 1497.333 432.264, 1497.227 430.565, 1489.749 419.264 C 1473.107 394.114, 1449.342 373.447, 1422 360.345 C 1408.508 353.880, 1385.287 346, 1379.727 346 C 1378.299 346, 1375.979 345.562, 1374.572 345.027 C 1372.261 344.149, 1359.505 342.864, 1340.500 341.595 C 1336.650 341.338, 1326.550 341.761, 1318.055 342.534 M 2031.216 342.470 C 2014.789 343.896, 2005.487 345.299, 1997.412 347.569 C 1994.614 348.356, 1991.450 349, 1990.382 349 C 1987.382 349, 1963.497 357.384, 1954 361.771 C 1931.993 371.935, 1914.152 384.621, 1895.405 403.435 C 1871.289 427.637, 1855.588 452.257, 1845.176 482.195 C 1843.014 488.413, 1840.479 496.875, 1839.544 501 C 1838.608 505.125, 1837.441 509.850, 1836.951 511.500 C 1832.709 525.784, 1831.551 574.637, 1834.901 598 C 1838.769 624.977, 1849.644 655.787, 1862.960 677.500 C 1884.692 712.936, 1919.671 743.894, 1955.958 759.808 C 1964.952 763.752, 1984.311 770.284, 1992 771.969 C 1995.025 772.632, 1999.975 773.791, 2003 774.545 C 2006.025 775.299, 2010.525 776.139, 2013 776.413 C 2015.475 776.687, 2020.875 777.432, 2025 778.068 C 2034.566 779.544, 2086.510 779.522, 2094 778.039 C 2097.025 777.441, 2102.650 776.564, 2106.500 776.091 C 2112.932 775.302, 2120.609 773.490, 2135 769.365 C 2145.432 766.375, 2167.193 756.713, 2177.678 750.416 C 2198.236 738.069, 2216.073 722.436, 2231.128 703.570 C 2239.513 693.064, 2241.159 689.663, 2238.880 687.554 C 2236.415 685.275, 2156.744 639.674, 2154.464 639.238 C 2152.835 638.927, 2151.229 639.943, 2148.376 643.092 C 2130.684 662.615, 2112.714 672.355, 2085 677.441 C 2077.443 678.829, 2071.716 679.097, 2057 678.756 C 2035.746 678.264, 2029.138 677.258, 2012.500 671.983 C 1992.477 665.634, 1979.927 657.448, 1967.862 642.865 C 1961.709 635.427, 1953.205 620.525, 1951.105 613.500 C 1950.612 611.850, 1949.888 609.712, 1949.497 608.750 L 1948.786 607 2101.870 607 L 2254.954 607 2256.427 604.750 C 2258.685 601.301, 2261.988 575.253, 2262.011 560.714 C 2262.046 538.906, 2257.507 508.449, 2251.250 488.500 C 2232.163 427.652, 2185.325 376.476, 2129.482 355.457 C 2118.769 351.425, 2111.157 349, 2109.210 349 C 2108.190 349, 2105.364 348.382, 2102.928 347.626 C 2087.247 342.760, 2054.776 340.425, 2031.216 342.470 M 2751 345.967 C 2719.411 347.998, 2684.660 363.209, 2664.862 383.672 C 2659.364 389.354, 2647.022 406.528, 2645.602 410.472 C 2643.755 415.603, 2643.030 407.698, 2643.015 382.285 L 2643 355.070 2641.066 354.035 C 2639.804 353.360, 2621.221 353, 2587.637 353 L 2536.143 353 2534.571 354.571 L 2533 356.143 2533 560.871 C 2533 718.771, 2533.274 765.874, 2534.200 766.800 C 2535.103 767.703, 2548.337 768, 2587.618 768 C 2616.338 768, 2640.548 767.727, 2641.418 767.393 L 2643 766.786 2643.047 669.643 C 2643.102 555.700, 2643.508 546.901, 2649.544 528.692 C 2656.522 507.637, 2668.516 493.716, 2689.674 482.111 C 2708.021 472.047, 2728.745 467.030, 2752.050 467.011 C 2761.242 467.004, 2765.986 466.614, 2766.800 465.800 C 2767.706 464.894, 2768 450.327, 2768 406.371 L 2768 348.143 2766.429 346.571 C 2765.564 345.707, 2763.877 345.080, 2762.679 345.178 C 2761.480 345.276, 2756.225 345.631, 2751 345.967 M 2034.500 442.969 C 2005.972 445.818, 1980.868 459.519, 1965.163 480.814 C 1957.308 491.466, 1948 511.702, 1948 518.130 L 1948 520 2049 520 C 2129.157 520, 2149.991 519.742, 2149.956 518.750 C 2149.932 518.063, 2149.264 515.700, 2148.471 513.500 C 2147.679 511.300, 2147.023 508.916, 2147.015 508.202 C 2146.981 505.237, 2136.879 485.749, 2132.072 479.376 C 2119.834 463.150, 2100.236 450.620, 2078.214 444.942 C 2069.751 442.760, 2046.915 441.729, 2034.500 442.969" stroke="none" fill="#ffffff" fill-rule="evenodd"/><path d="M 362.840 182.350 C 304.719 220.940, 259.642 280.305, 235.540 350 C 230.429 364.780, 225.460 382.922, 224.037 392 C 223.477 395.575, 222.106 404.125, 220.991 411 C 218.334 427.378, 217.294 461.628, 218.903 479.782 C 222.750 523.189, 233.207 560.692, 252.563 600.500 C 259.371 614.501, 271.630 635.309, 279.573 646.346 C 282.283 650.111, 285.160 654.161, 285.967 655.346 C 286.774 656.531, 290.523 661.325, 294.298 666 C 333.461 714.499, 385.576 754.082, 447 781.981 C 454.425 785.353, 461.400 788.531, 462.500 789.042 C 467.055 791.158, 480.114 796.398, 489 799.674 C 528.711 814.317, 562.615 820.868, 592.465 819.668 C 626.774 818.288, 650.189 807.402, 664.144 786.343 C 674.291 771.029, 678.210 752.926, 675.019 736.101 C 673.615 728.697, 668.485 716.387, 664.189 710.113 C 658.713 702.115, 647.135 691.923, 638.761 687.729 C 626.338 681.507, 622.094 680.877, 586.500 679.967 C 550.183 679.039, 535.570 677.338, 513.423 671.461 C 486.117 664.216, 463.636 654.628, 439.843 640.078 C 362.484 592.772, 309.954 510.811, 297.832 418.500 C 294.732 394.895, 294.712 364.219, 297.780 341 C 303.214 299.879, 316.522 262.222, 338.773 225 C 347.327 210.691, 362.137 190.498, 370.921 181.166 C 373.164 178.783, 375 176.645, 375 176.416 C 375 174.947, 371.191 176.805, 362.840 182.350" stroke="none" fill="#ffbd00" fill-rule="evenodd"/><path d="M 578 287.553 C 563.871 290.583, 549.484 297.343, 539.487 305.650 C 530.482 313.132, 521.489 327.910, 517.972 341 C 517.308 343.475, 516.759 350.697, 516.752 357.048 C 516.739 370.451, 518.139 376.343, 524.204 388.407 C 529.890 399.714, 542.449 412.142, 553.585 417.483 C 567.545 424.177, 567.446 424.162, 604 425.037 C 636.692 425.819, 643.930 426.466, 665.500 430.529 C 675.845 432.478, 696.532 438.508, 705.359 442.148 C 709.163 443.717, 712.692 445, 713.202 445 C 714.807 445, 743.218 459.440, 751.473 464.451 C 793.024 489.675, 829.085 526.398, 854.176 569.041 C 859.804 578.607, 870.244 599.890, 874.719 610.918 C 883.536 632.653, 891.727 664.158, 894.653 687.591 C 897.045 706.748, 897.077 744.476, 894.716 763.260 C 890.833 794.155, 880.654 827.676, 866.555 855.992 C 861.588 865.969, 860.291 868.382, 854.184 879 C 848.596 888.716, 835.599 907.026, 826.967 917.342 C 821.977 923.305, 818.035 928.605, 818.206 929.118 C 818.377 929.632, 823.014 927.075, 828.509 923.436 C 875.615 892.241, 915.706 845.830, 941.185 793 C 952.499 769.539, 958.310 753.237, 966.046 723.256 C 968.914 712.142, 973.035 682.173, 973.946 665.813 C 976.065 627.769, 969.454 582.655, 956.096 544 C 925.787 456.290, 860.062 382.668, 769.500 334.984 C 759.160 329.539, 733.878 317.731, 723 313.265 C 707.141 306.754, 694.190 302.044, 681.500 298.174 C 665.446 293.279, 650.624 289.802, 636 287.502 C 623.532 285.541, 587.233 285.573, 578 287.553" stroke="none" fill="#ff5400" fill-rule="evenodd"/></svg>